<?xml version="1.0" encoding="UTF-8"?>
<svg id="Layer_1" data-name="Layer 1" xmlns="http://www.w3.org/2000/svg" viewBox="0 0 455 217">
  <defs>
    <style>
      .cls-1 {
        fill: #ea9c00;
      }

      .cls-2 {
        fill: #0f22b2;
      }
    </style>
  </defs>
  <path class="cls-1" d="M351.78,40.18h-32.89c-1.54,0-2.51,1.66-1.76,3l77.26,138.07c.36,.64,1.03,1.03,1.76,1.03h32.89c1.54,0,2.51-1.66,1.76-3L353.54,41.21c-.36-.64-1.03-1.03-1.76-1.03Z"/>
  <g>
    <path class="cls-2" d="M117.66,109.28c0-41.99,19.33-73.62,60.3-73.62s60.56,31.62,60.56,73.62-19.72,73.36-60.56,73.36-60.3-31.62-60.3-73.36Zm86.55,0c0-27.27-6.91-49.55-26.25-49.55s-26.25,22.28-26.25,49.55,6.79,49.55,26.25,49.55,26.25-22.28,26.25-49.55Z"/>
    <path class="cls-2" d="M121.02,39.83c-10.54-2.26-18.38-4.17-29.99-4.17-21.25,0-33.36,7.2-40.24,15.57,1.86,.1,3.56-.32,5.36-1.24,5.5-2.79,12.12,.82,12.7,6.66,.5,5-3.22,9.58-7.97,9.82-5.49,.27-9.51-3.53-9.38-9.05,.06-2.08,.37-4.14-.97-5.87-8.33,10.36-8.8,22.38-8.8,24.7,0,50.58,55.82,37.26,55.82,64.79,0,11.52-10.24,17.02-20.74,17.02s-18.04-3.4-26.1-6.83c-2.51-1.07-5.33,.66-5.5,3.38l-1.23,19.12c-.12,1.86,1.07,3.56,2.87,4.07,7.23,2.01,20.38,4.84,35.21,4.84,16.62,0,30.89-5.6,39.85-15.63,1.13-1.28,1.28-3.16,.39-4.62-8.62-14.12-12.83-32.51-12.83-53.09,0-1.88,.04-3.76,.11-5.6,.06-1.56-.78-3-2.17-3.72-15.11-7.78-31.62-10.65-31.62-24.76,0-10.5,8.19-15.49,18.82-15.49,7.36,0,15.88,1.96,23.19,4.92,.02,0,.04,.02,.06,.02,2.54,1.01,5.33-.73,5.46-3.46l.35-7.38,.48-9.93c.1-1.94-1.23-3.66-3.12-4.07Zm-49.09,11.89c-1.46,.1-2.43-.57-2.53-2.01-.11-1.43,.79-2.22,2.19-2.45,1.43,.07,2.3,.91,2.34,2.27,.03,1.21-.63,2.11-2.01,2.18Z"/>
    <path class="cls-2" d="M287.44,162.71l-2.72-4.86c-.45-.8-1.29-1.3-2.21-1.3h-21.34c-1.4,0-2.53-1.13-2.53-2.53V42.71c0-1.4-1.13-2.53-2.53-2.53h-28.61c-1.4,0-2.53,1.13-2.53,2.53h0c0,.67,.27,1.31,.74,1.78,14.74,14.82,21.96,37.92,21.96,64.8s-7.22,49.75-21.96,64.55c-.47,.48-.75,1.11-.75,1.78v4.13c0,1.4,1.13,2.53,2.53,2.53h66.58c1.93,0,3.16-2.08,2.21-3.77l-8.84-15.81Z"/>
    <path class="cls-2" d="M350.23,115.63c-12.58,21.23-25.16,42.46-37.74,63.69-.78,1.31,.17,2.97,1.69,2.97h29.1c10.86-18.86,13.56-23.55,24.41-42.41-4.69-8.08-9.38-16.16-14.07-24.24-.75-1.3-2.63-1.31-3.39-.02Zm75.86-75.45h-28.8c-9.46,16.71-11.72,20.7-21.18,37.41l14.12,23.54c.77,1.28,2.62,1.27,3.38-.01,11.39-19.32,22.78-38.64,34.17-57.97,.77-1.31-.17-2.97-1.69-2.97Z"/>
    <path class="cls-2" d="M341.34,182.29h-33.01c-.71,0-1.37-.38-1.72-1.01l-10.39-18.57-28.48-50.9c-.16-.29-.25-.62-.25-.96V51.85c0-2.03,2.69-2.73,3.68-.96l71.88,128.47c.73,1.31-.21,2.93-1.72,2.93Z"/>
    <g>
      <path class="cls-2" d="M50.13,51.09s.06,.07,.1,.1c-.06,0-.12,0-.18,0l.08-.09Z"/>
      <path class="cls-2" d="M50.79,51.23c-.09,.11-.18,.21-.26,.32-.1-.12-.2-.24-.3-.36,.2,.03,.38,.04,.57,.04Z"/>
      <path class="cls-2" d="M50.05,51.18c-.8-1.57-1.57-3.04-1.67-4.96-.15-2.97-2.82-4.83-5.62-4.38-2.67,.43-4.46,3.05-3.89,5.69,.64,2.96,3.32,4.56,6.37,3.56,1.69-.55,3.25-.61,4.88,0,0,0-.08,.09-.08,.09Z"/>
      <path class="cls-2" d="M33.92,38.71c2.59-.03,4.64-2.16,4.57-4.76-.07-2.57-2.25-4.65-4.84-4.46-2.76,.2-4.25,1.82-4.37,4.55-.11,2.59,2.05,4.7,4.63,4.67Z"/>
      <path class="cls-2" d="M32.02,51.06c2.21-.18,3.67-1.14,3.74-3.5,.07-2.29-1.18-3.66-3.37-3.8-2.38-.15-3.86,1.19-3.9,3.61-.04,2.27,1.4,3.39,3.53,3.69Z"/>
      <path class="cls-2" d="M44.02,35.25c.08,1.68,.97,2.73,2.68,2.78,1.73,.05,2.68-.98,2.74-2.71,.06-1.77-.96-2.8-2.62-2.84-1.67-.04-2.66,.98-2.79,2.76Z"/>
      <path class="cls-2" d="M43.74,23c-.75,.03-1.29,.38-1.37,1.14-.1,.93,.45,1.47,1.35,1.46,.76,0,1.2-.56,1.22-1.29,.01-.74-.42-1.21-1.2-1.31Z"/>
    </g>
  </g>
</svg>